REM DIRINDEX 1\2,1\3,1\4,1\5
REM DIRNAME folder01,folder02,folder03,folder04,folder05
TITLE ""
FILE "P1Q_t_0752-0761.mp3" MP3
  TRACK 01 AUDIO
    TITLE "3:cjc005_3160"
    INDEX 01 00:00:00
  TRACK 02 AUDIO
    TITLE "0:"
    INDEX 01 00:01:15
  TRACK 03 AUDIO
    TITLE "4:cjc005_3161"
    INDEX 01 00:01:46
  TRACK 04 AUDIO
    TITLE "0:"
    INDEX 01 00:02:57
  TRACK 05 AUDIO
    TITLE "5:cjc005_3162"
    INDEX 01 00:03:04
  TRACK 06 AUDIO
    TITLE "0:"
    INDEX 01 00:07:45
  TRACK 07 AUDIO
    TITLE "3:cjc005_3163"
    INDEX 01 00:08:32
  TRACK 08 AUDIO
    TITLE "0:"
    INDEX 01 00:09:49
  TRACK 09 AUDIO
    TITLE "4:cjc005_3164"
    INDEX 01 00:10:02
  TRACK 10 AUDIO
    TITLE "0:"
    INDEX 01 00:11:07
  TRACK 11 AUDIO
    TITLE "5:cjc005_3165"
    INDEX 01 00:11:33
  TRACK 12 AUDIO
    TITLE "0:"
    INDEX 01 00:15:72
  TRACK 13 AUDIO
    TITLE "3:cjc005_3166"
    INDEX 01 00:16:53
  TRACK 14 AUDIO
    TITLE "0:"
    INDEX 01 00:17:70
  TRACK 15 AUDIO
    TITLE "4:cjc005_3167"
    INDEX 01 00:18:27
  TRACK 16 AUDIO
    TITLE "0:"
    INDEX 01 00:19:46
  TRACK 17 AUDIO
    TITLE "5:cjc005_3168"
    INDEX 01 00:20:00
  TRACK 18 AUDIO
    TITLE "0:"
    INDEX 01 00:24:12
  TRACK 19 AUDIO
    TITLE "3:cjc005_3169"
    INDEX 01 00:24:69
  TRACK 20 AUDIO
    TITLE "0:"
    INDEX 01 00:26:07
  TRACK 21 AUDIO
    TITLE "4:cjc005_3170"
    INDEX 01 00:26:32
  TRACK 22 AUDIO
    TITLE "0:"
    INDEX 01 00:27:39
  TRACK 23 AUDIO
    TITLE "5:cjc005_3171"
    INDEX 01 00:27:65
  TRACK 24 AUDIO
    TITLE "0:"
    INDEX 01 00:31:12
  TRACK 25 AUDIO
    TITLE "3:cjc005_3172"
    INDEX 01 00:32:01
  TRACK 26 AUDIO
    TITLE "0:"
    INDEX 01 00:33:15
  TRACK 27 AUDIO
    TITLE "4:cjc005_3173"
    INDEX 01 00:33:46
  TRACK 28 AUDIO
    TITLE "0:"
    INDEX 01 00:34:57
  TRACK 29 AUDIO
    TITLE "5:cjc005_3174"
    INDEX 01 00:35:08
  TRACK 30 AUDIO
    TITLE "0:"
    INDEX 01 00:38:24
  TRACK 31 AUDIO
    TITLE "3:cjc005_3175"
    INDEX 01 00:39:07
  TRACK 32 AUDIO
    TITLE "0:"
    INDEX 01 00:40:19
  TRACK 33 AUDIO
    TITLE "4:cjc005_3176"
    INDEX 01 00:40:46
  TRACK 34 AUDIO
    TITLE "0:"
    INDEX 01 00:41:57
  TRACK 35 AUDIO
    TITLE "5:cjc005_3177"
    INDEX 01 00:42:08
  TRACK 36 AUDIO
    TITLE "0:"
    INDEX 01 00:45:61
  TRACK 37 AUDIO
    TITLE "3:cjc005_3178"
    INDEX 01 00:46:43
  TRACK 38 AUDIO
    TITLE "0:"
    INDEX 01 00:48:00
  TRACK 39 AUDIO
    TITLE "4:cjc005_3179"
    INDEX 01 00:48:26
  TRACK 40 AUDIO
    TITLE "0:"
    INDEX 01 00:49:12
  TRACK 41 AUDIO
    TITLE "5:cjc005_3180"
    INDEX 01 00:49:39
  TRACK 42 AUDIO
    TITLE "0:"
    INDEX 01 00:54:05
  TRACK 43 AUDIO
    TITLE "3:cjc005_3181"
    INDEX 01 00:54:58
  TRACK 44 AUDIO
    TITLE "0:"
    INDEX 01 00:55:69
  TRACK 45 AUDIO
    TITLE "4:cjc005_3182"
    INDEX 01 00:56:22
  TRACK 46 AUDIO
    TITLE "0:"
    INDEX 01 00:57:25
  TRACK 47 AUDIO
    TITLE "5:cjc005_3183"
    INDEX 01 00:57:52
  TRACK 48 AUDIO
    TITLE "0:"
    INDEX 01 01:02:06
  TRACK 49 AUDIO
    TITLE "3:cjc005_3184"
    INDEX 01 01:02:57
  TRACK 50 AUDIO
    TITLE "0:"
    INDEX 01 01:04:01
  TRACK 51 AUDIO
    TITLE "4:cjc005_3185"
    INDEX 01 01:04:27
  TRACK 52 AUDIO
    TITLE "0:"
    INDEX 01 01:05:34
  TRACK 53 AUDIO
    TITLE "5:cjc005_3186"
    INDEX 01 01:05:56
  TRACK 54 AUDIO
    TITLE "0:"
    INDEX 01 01:09:18
  TRACK 55 AUDIO
    TITLE "3:cjc005_3187"
    INDEX 01 01:09:73
  TRACK 56 AUDIO
    TITLE "0:"
    INDEX 01 01:11:11
  TRACK 57 AUDIO
    TITLE "4:cjc005_3188"
    INDEX 01 01:11:35
  TRACK 58 AUDIO
    TITLE "0:"
    INDEX 01 01:12:60
  TRACK 59 AUDIO
    TITLE "5:cjc005_3189"
    INDEX 01 01:13:12
  TRACK 60 AUDIO
    TITLE "0:"
    INDEX 01 01:16:65
